<?xml version="1.0" encoding="UTF-8" standalone="no"?>
<!-- Generated by Microsoft Visio 11.0, SVG Export, v1.0 shouty.svg Occupy_Logo -->

<svg
   xmlns:v="http://schemas.microsoft.com/visio/2003/SVGExtensions/"
   xmlns:dc="http://purl.org/dc/elements/1.1/"
   xmlns:cc="http://creativecommons.org/ns#"
   xmlns:rdf="http://www.w3.org/1999/02/22-rdf-syntax-ns#"
   xmlns:svg="http://www.w3.org/2000/svg"
   xmlns="http://www.w3.org/2000/svg"
   xmlns:sodipodi="http://sodipodi.sourceforge.net/DTD/sodipodi-0.dtd"
   xmlns:inkscape="http://www.inkscape.org/namespaces/inkscape"
   width="3.4375in"
   height="4.16667in"
   viewBox="0 0 247.5 300"
   xml:space="preserve"
   color-interpolation-filters="sRGB"
   class="st6"
   id="svg2"
   version="1.1"
   inkscape:version="0.48.2 r9819"
   sodipodi:docname="note.svg"
   inkscape:export-filename="/home/nathan/Programming/shouty/src/main/res/drawable-hdpi/note.png"
   inkscape:export-xdpi="11.63"
   inkscape:export-ydpi="11.63"><metadata
   id="metadata100"><rdf:RDF><cc:Work
       rdf:about=""><dc:format>image/svg+xml</dc:format><dc:type
         rdf:resource="http://purl.org/dc/dcmitype/StillImage" /><dc:title></dc:title></cc:Work></rdf:RDF></metadata><defs
   id="defs98">
		
		<v:pageProperties
   v:shadowOffsetY="-9"
   v:shadowOffsetX="9"
   v:drawingUnits="19"
   v:pageScale="1"
   v:drawingScale="1" />
		
		
		
		
		
		
		
		
		
		
	</defs><sodipodi:namedview
   pagecolor="#ffffff"
   bordercolor="#666666"
   borderopacity="1"
   objecttolerance="10"
   gridtolerance="10"
   guidetolerance="10"
   inkscape:pageopacity="0"
   inkscape:pageshadow="2"
   inkscape:window-width="936"
   inkscape:window-height="612"
   id="namedview96"
   showgrid="false"
   inkscape:zoom="1.2977778"
   inkscape:cx="160.03124"
   inkscape:cy="190.96697"
   inkscape:window-x="68"
   inkscape:window-y="24"
   inkscape:window-maximized="0"
   inkscape:current-layer="svg2" />
	<v:documentProperties
   v:langID="1033"
   v:viewMarkup="false" />

	<style
   type="text/css"
   id="style4">
	
		.st1 {fill:none;stroke:#000000;stroke-linecap:butt;stroke-width:6}
		.st2 {fill:#000000;stroke:none;stroke-linecap:butt;stroke-width:0.75}
		.st3 {stroke:#000000;stroke-linecap:round;stroke-linejoin:round;stroke-width:0.72}
		.st4 {fill:#000000;stroke:#000000;stroke-linecap:round;stroke-linejoin:round;stroke-width:0.72}
		.st5 {fill:#ffffff;stroke:none;stroke-linecap:round;stroke-linejoin:round;stroke-width:0.72}
		.st6 {fill:none;fill-rule:evenodd;font-size:12;overflow:visible;stroke-linecap:square;stroke-miterlimit:3}
	
	</style>

	<g
   id="g3899"
   transform="matrix(1.0043573,0,0,1.0372602,-0.24506322,-1.9196329)"><g
     style="fill:#828282;fill-opacity:1;stroke:#82828d;stroke-width:1.1026541;stroke-opacity:1"
     id="shape3-20"
     v:mID="3"
     v:groupContext="shape"
     transform="matrix(0.54242908,0.68160154,-0.78205983,0.47275218,349.46158,-87.345378)">
			<title
   id="title57">Sheet.3</title>
			<path
   d="m 0,300 150.31,0"
   class="st3"
   id="path59"
   inkscape:connector-curvature="0"
   style="fill:#828282;fill-opacity:1;stroke:#82828d;stroke-width:0.79391104;stroke-linecap:round;stroke-linejoin:round;stroke-opacity:1" />
		</g><g
     style="fill:#828282;fill-opacity:1;stroke:#82828d;stroke-width:1.1026541;stroke-opacity:1"
     id="shape15-23"
     v:mID="15"
     v:groupContext="shape"
     transform="matrix(0.95175988,0,0,0.82950303,62.339036,-65.339492)">
			<title
   id="title62">Sheet.15</title>
			<path
   d="m 0,239.68 a 5.9722,5.9722 -180 0 0 3.36,-0.37 31.1813,31.1813 -180 0 0 11.82,-7.28 221.889,221.889 -180 0 0 13.09,-14.5 215.975,215.975 -180 0 0 9.66,-14.15 180.722,180.722 -180 0 0 10.33,-19.42 l 91.61,95.69 -1.67,3.77 a 86.7671,86.7671 0 0 1 -7.91,11.8 14.6853,14.6853 0 0 1 -5.86,4.53 3.49302,3.49302 0 0 1 -2.83,-0.1 L 0,239.68 z"
   class="st4"
   id="path64"
   inkscape:connector-curvature="0"
   style="fill:#828282;fill-opacity:1;stroke:#82828d;stroke-width:0.79391104;stroke-linecap:round;stroke-linejoin:round;stroke-opacity:1" />
		</g><g
     style="fill:#828282;fill-opacity:1;stroke:#82828d;stroke-width:1.1026541;stroke-opacity:1"
     id="shape16-25"
     v:mID="16"
     v:groupContext="shape"
     transform="matrix(0.95175988,0,0,0.82950303,112.53809,-84.667742)">
			<title
   id="title67">Sheet.16</title>
			<path
   d="M 0,196.21 88.16,300 a 9.91317,9.91317 -180 0 0 0.87,-3.86 14.5145,14.5145 -180 0 0 -0.05,-3.58 L 87.73,290.64 3.15,168.79 A 16.0535,16.0535 0 0 1 4.41,175.01 67.7911,67.7911 0 0 1 3.18,185.35 68.1259,68.1259 0 0 1 0,196.21 z"
   class="st4"
   id="path69"
   inkscape:connector-curvature="0"
   style="fill:#828282;fill-opacity:1;stroke:#82828d;stroke-width:0.79391104;stroke-linecap:round;stroke-linejoin:round;stroke-opacity:1" />
		</g><g
     style="fill:#828282;fill-opacity:1;stroke:#82828d;stroke-width:1.1026541;stroke-opacity:1"
     id="shape19-33"
     v:mID="19"
     v:groupContext="shape"
     transform="matrix(0.83081221,0.40468107,-0.46432525,0.72409151,186.53456,-94.664083)">
			<title
   id="title87">Sheet.19</title>
			<ellipse
   cx="14.7892"
   cy="247.38499"
   rx="14.7892"
   ry="52.614498"
   class="st4"
   id="ellipse89"
   d="m 29.5784,247.38499 c 0,29.05819 -6.621351,52.6145 -14.7892,52.6145 C 6.6213503,299.99949 0,276.44318 0,247.38499 0,218.32681 6.6213503,194.7705 14.7892,194.7705 c 8.167849,0 14.7892,23.55631 14.7892,52.61449 z"
   sodipodi:cx="14.7892"
   sodipodi:cy="247.38499"
   sodipodi:rx="14.7892"
   sodipodi:ry="52.614498"
   style="fill:#828282;fill-opacity:1;stroke:#82828d;stroke-width:0.79391104;stroke-linecap:round;stroke-linejoin:round;stroke-opacity:1" />
		</g><g
     style="fill:#828282;fill-opacity:1;stroke:#82828d;stroke-width:1.1026541;stroke-opacity:1"
     id="shape2-35"
     v:mID="2"
     v:groupContext="shape"
     transform="matrix(-0.95138881,0.02316108,-0.0265747,-0.82917962,116.20903,303.40779)">
			<title
   id="title92">Sheet.2</title>
			<path
   d="m 0.16,295.45 a 13.2061,13.2061 -16.38 0 0 6.28,-3.57 73.55,73.55 -180 0 0 9.91,-10.95 l 9.38,-13.04 6.16,-10.52 6.36,-12.42 3.88,-9.24 a 69.3777,69.3777 -180 0 0 3.24,-10.04 47.785,47.785 -7.64 0 0 1.18,-6.93 3.11005,3.11005 52.02 0 1 4.68,-1.49 24.9363,24.9363 174.04 0 1 -0.09,3.24 76.3872,76.3872 0 0 1 -1.02,6.3 42.1683,42.1683 0 0 1 -1.96,6.43 l -2.09,5.73 a 131.292,131.292 0 0 1 -5.21,12.52 l -4.92,9.67 -7.6,12.23 -8.08,10.95 A 79.38,79.38 0 0 1 9.57,295.53 22.3046,22.3046 0 0 1 3.78,299.21 L 1.86,300 a 4.06289,4.06289 0 0 1 -1.7,-4.55 z"
   class="st5"
   id="path94"
   inkscape:connector-curvature="0"
   style="fill:#828282;fill-opacity:1;stroke:#82828d;stroke-width:0.79391104;stroke-linecap:round;stroke-linejoin:round;stroke-opacity:1" />
		</g></g>
</svg>