<?xml version="1.0" encoding="UTF-8" standalone="no"?>
<!DOCTYPE svg PUBLIC "-//W3C//DTD SVG 1.0//EN" "http://www.w3.org/TR/2001/REC-SVG-20010904/DTD/svg10.dtd">
<!-- Generated by Microsoft Visio 11.0, SVG Export, v1.0 shouty.svg Occupy_Logo -->
<svg xmlns="http://www.w3.org/2000/svg" xmlns:v="http://schemas.microsoft.com/visio/2003/SVGExtensions/" width="3.4375in"
		height="4.16667in" viewBox="0 0 247.5 300" xml:space="preserve" color-interpolation-filters="sRGB" class="st6">
	<v:documentProperties v:langID="1033" v:viewMarkup="false"/>

	<style type="text/css">
	<![CDATA[
		.st1 {fill:none;stroke:#000000;stroke-linecap:butt;stroke-width:6}
		.st2 {fill:#000000;stroke:none;stroke-linecap:butt;stroke-width:0.75}
		.st3 {stroke:#000000;stroke-linecap:round;stroke-linejoin:round;stroke-width:0.72}
		.st4 {fill:#000000;stroke:#000000;stroke-linecap:round;stroke-linejoin:round;stroke-width:0.72}
		.st5 {fill:#ffffff;stroke:none;stroke-linecap:round;stroke-linejoin:round;stroke-width:0.72}
		.st6 {fill:none;fill-rule:evenodd;font-size:12;overflow:visible;stroke-linecap:square;stroke-miterlimit:3}
	]]>
	</style>

	<g v:mID="0" v:index="1" v:groupContext="foregroundPage">
		<title>Occupy_Logo</title>
		<v:pageProperties v:drawingScale="1" v:pageScale="1" v:drawingUnits="19" v:shadowOffsetX="9" v:shadowOffsetY="-9"/>
		<g id="shape5-1" v:mID="5" v:groupContext="shape" transform="translate(13.5,-64.9365)">
			<title>Sheet.5</title>
			<path d="M29 78.81 C13.01 78.81 -0 91.82 0 107.82 L0 271 C-0 286.99 13.01 300 29 300 L192.19 300 C208.18 300 221.2 286.99
						 221.2 271 L221.2 107.82 C221.2 91.82 208.18 78.81 192.19 78.81 L29 78.81 Z" class="st1"/>
		</g>
		<g id="group6-3" transform="translate(101.936,-76.125)" v:mID="6" v:groupContext="group">
			<title>Sheet.6</title>
			<g id="shape7-4" v:mID="7" v:groupContext="shape" transform="translate(22.1109,-33.4894)">
				<title>Sheet.7</title>
				<path d="M0.24 295.29 C0.13 295.57 0.06 295.86 0.03 296.16 C0 296.49 0.01 296.81 0.07 297.14 C0.11 297.33 0.15 297.53
							 0.22 297.72 C0.54 298.59 1.19 299.29 2.04 299.68 C2.5 299.89 2.99 300 3.5 300 C4.13 300 4.73 299.83
							 5.25 299.52 C5.54 299.35 5.8 299.15 6.02 298.91 C6.23 298.7 6.41 298.46 6.55 298.19 C6.59 298.12 6.64
							 298.04 6.68 297.96 C6.68 297.96 13.66 282.78 13.67 282.75 C13.69 282.72 13.88 282.13 13.93 281.9 C14.2
							 280.37 13.43 278.79 11.96 278.11 C11.49 277.9 11 277.79 10.5 277.79 C9.43 277.79 8.45 278.28 7.79 279.08
							 C7.61 279.31 7.44 279.55 7.32 279.83 C7.32 279.82 7.32 279.82 7.32 279.82 L7.32 279.83 C7.32 279.83
							 7.31 279.83 7.31 279.83 L0.32 295.04 C0.29 295.12 0.27 295.21 0.24 295.29 Z" class="st2"/>
			</g>
			<g id="shape8-6" v:mID="8" v:groupContext="shape" transform="translate(13.6175,-37.4737)">
				<title>Sheet.8</title>
				<path d="M11.88 282.55 C12.03 282.7 12.12 282.9 12.19 283.11 C12.36 283.61 12.33 284.26 12.19 284.91 C12.12 285.25
							 12.03 285.58 11.92 285.89 C11.87 286.01 11.83 286.13 11.78 286.25 C11.71 286.42 11.62 286.62 11.51 286.83
							 C10.56 288.71 8.12 291.86 2.39 292.05 C2.39 292.05 2.39 292.05 2.39 292.05 L0 297.02 C1.49 297.37 4.14
							 298.21 6.44 300 L14.22 283.08 C14.35 282.8 14.42 282.52 14.47 282.23 C14.74 280.7 13.98 279.12 12.5
							 278.44 C12.04 278.23 11.55 278.12 11.05 278.12 C9.98 278.12 8.99 278.61 8.34 279.41 C8.15 279.64 7.99
							 279.89 7.86 280.16 C7.86 280.16 7.86 280.15 7.87 280.15 L7.86 280.16 L7.86 280.16 L6.88 282.3 L11.62
							 282.3 L11.88 282.55 Z" class="st2"/>
			</g>
			<g id="shape9-8" v:mID="9" v:groupContext="shape" transform="translate(10.8693,-55.1733)">
				<title>Sheet.9</title>
				<path d="M5.42 300 L6.27 300 L7.7 300 L9.01 297.13 C9.14 296.86 9.21 296.57 9.27 296.29 C9.54 294.76 8.77 293.17
							 7.3 292.5 C6.83 292.28 6.34 292.17 5.84 292.17 C4.78 292.17 3.79 292.67 3.13 293.47 C2.95 293.69 2.78
							 293.94 2.66 294.21 C2.66 294.21 2.66 294.22 2.66 294.22 L0 300 L2.91 300 L5.42 300 L5.42 300 Z"
						class="st2"/>
			</g>
			<g id="shape10-10" v:mID="10" v:groupContext="shape" transform="translate(19.8879,-58.0408)">
				<title>Sheet.10</title>
				<path d="M0 299.99 L0 299.99 L0 299.99 L0 300 L0 299.99 Z" class="st2"/>
			</g>
			<g id="shape11-12" v:mID="11" v:groupContext="shape" transform="translate(34.9947,-44.8301)">
				<title>Sheet.11</title>
			</g>
			<g id="shape12-14" v:mID="12" v:groupContext="shape" transform="translate(28.3149,-34.4917)">
				<title>Sheet.12</title>
				<path d="M0 300 L0 300 L0 300 Z" class="st2"/>
			</g>
			<g id="shape13-16" v:mID="13" v:groupContext="shape" transform="translate(28.3149,-34.4951)">
				<title>Sheet.13</title>
				<path d="M0 300 L0 300 L0 300 L0 300 Z" class="st2"/>
			</g>
			<g id="shape14-18" v:mID="14" v:groupContext="shape">
				<title>Sheet.14</title>
				<path d="M41.06 257.96 C41.06 257.57 40.84 256.76 40.83 256.75 C40.34 255.42 39.07 254.46 37.56 254.46 C37.25 254.46
							 36.94 254.52 36.65 254.6 C36.15 254.73 35.69 254.98 35.3 255.31 C34.85 255.7 34.49 256.19 34.29 256.77
							 C34.28 256.78 34.28 256.78 34.28 256.79 L29.91 266.24 C29.78 266.52 29.71 266.81 29.7 267.1 C29.69 267.21
							 29.7 267.31 29.7 267.41 C29.77 268.24 30.27 269 31.07 269.37 C31.45 269.54 31.86 269.6 32.26 269.55
							 C32.78 269.5 33.28 269.28 33.67 268.93 C33.85 268.76 34.01 268.55 34.13 268.32 L36.4 263.42 L37.99 264.15
							 L38.15 263.81 L35.79 268.94 L35.79 268.94 C35.75 269.03 35.7 269.11 35.65 269.19 C35.55 269.36 35.45
							 269.53 35.33 269.69 C35.08 270.01 34.79 270.3 34.46 270.53 C33.82 271 33.06 271.28 32.26 271.32 C32.19
							 271.32 32.12 271.33 32.05 271.33 C31.45 271.33 30.88 271.21 30.34 270.96 C29.52 270.58 28.9 269.97 28.49
							 269.24 C28.29 268.89 28.15 268.51 28.06 268.12 C28.03 267.98 28 267.83 27.98 267.68 C27.71 267.82 27.43
							 267.94 27.14 268.03 C26.65 268.18 26.14 268.26 25.61 268.26 C25 268.26 24.6 268.15 24.03 267.95 C24.35
							 269 24.55 270.17 24.55 271.49 L24.55 278.13 L22.8 278.13 L22.8 271.49 C22.8 269.91 22.31 268.56 21.8
							 267.41 C19.41 262.03 12.58 261.1 12.23 261.06 L11.03 260.9 L14.9 252.84 L15.45 252.84 C15.6 252.84 15.72
							 252.82 15.86 252.82 C16.2 252.8 16.54 252.8 16.85 252.76 C20.19 252.42 22.02 250.86 22.98 249.53 C23.07
							 249.41 23.14 249.3 23.22 249.18 C23.39 248.91 23.53 248.65 23.65 248.4 C23.79 248.11 23.9 247.83 23.98
							 247.57 C24.1 247.17 24.16 246.83 24.18 246.58 L9.71 246.58 C7.97 246.58 6.46 247.49 5.61 248.87 C5.41
							 249.19 5.25 249.53 5.13 249.9 L0.58 259.65 L0.35 260.15 C0.13 260.71 -0 261.32 0 261.95 C0 262.82 0.23
							 263.64 0.64 264.34 L1.13 265.05 L12.31 279.85 L12.31 300 L33.3 300 L33.3 300 L35.05 300 L35.05 285.13
							 L40.61 273.81 C40.69 273.67 40.77 273.53 40.82 273.38 C40.97 273.01 41.05 272.6 41.06 272.18 C41.06
							 272.16 41.06 257.96 41.06 257.96 Z" class="st2"/>
			</g>
		</g>
		<g id="shape3-20" v:mID="3" v:groupContext="shape" transform="translate(364.322,-138.707) rotate(55.2552)">
			<title>Sheet.3</title>
			<path d="M0 300 L150.31 300" class="st3"/>
		</g>
		<g id="shape15-23" v:mID="15" v:groupContext="shape" transform="translate(62.6466,-112.178)">
			<title>Sheet.15</title>
			<path d="M0 239.68 A5.9722 5.9722 -180 0 0 3.36 239.31 A31.1813 31.1813 -180 0 0 15.18 232.03 A221.889 221.889 -180 0
						 0 28.27 217.53 A215.975 215.975 -180 0 0 37.93 203.38 A180.722 180.722 -180 0 0 48.26 183.96 L139.87 279.65
						 L138.2 283.42 A86.7671 86.7671 0 0 1 130.29 295.22 A14.6853 14.6853 0 0 1 124.43 299.75 A3.49302 3.49302
						 0 0 1 121.6 299.65 L0 239.68 Z" class="st4"/>
		</g>
		<g id="shape16-25" v:mID="16" v:groupContext="shape" transform="translate(115.39,-135.479)">
			<title>Sheet.16</title>
			<path d="M0 196.21 L88.16 300 A9.91317 9.91317 -180 0 0 89.03 296.14 A14.5145 14.5145 -180 0 0 88.98 292.56 L87.73 290.64
						 L3.15 168.79 A16.0535 16.0535 0 0 1 4.41 175.01 A67.7911 67.7911 0 0 1 3.18 185.35 A68.1259 68.1259 0 0
						 1 -0 196.21 Z" class="st4"/>
		</g>
		<g id="shape1-27" v:mID="1" v:groupContext="shape" transform="translate(94.25,-125.344)">
			<title>Sheet.1</title>
			<path d="M7.69 276.37 L0.38 291.21 A2.31304 2.31304 -180 0 0 0.11 293.18 A2.68092 2.68092 -180 0 0 1.4 294.83 L10.16
						 300 L13.68 294.37 L7.07 291.14 L13.03 279.19 L7.69 276.37 Z" class="st4"/>
		</g>
		<g id="shape17-29" v:mID="17" v:groupContext="shape" transform="translate(395.731,40.5332) rotate(57) scale(-1,1)">
			<title>Sheet.17</title>
			<path d="M10.33 273.26 L0.38 291.21 A2.31304 2.31304 -180 0 0 0.11 293.18 A2.68092 2.68092 -180 0 0 1.4 294.83 L10.16
						 300 L13.68 294.37 L7.07 291.14 L15.67 276.08 L10.33 273.26 Z" class="st4"/>
		</g>
		<g id="shape18-31" v:mID="18" v:groupContext="shape" transform="translate(132.945,-99.75)">
			<title>Sheet.18</title>
			<path d="M10.05 297.75 L3.09 293.81 L0 294.8 L9.07 300 L10.05 297.75 Z" class="st5"/>
		</g>
		<g id="shape19-33" v:mID="19" v:groupContext="shape" transform="translate(193.137,-147.53) rotate(29.2)">
			<title>Sheet.19</title>
			<ellipse cx="14.7892" cy="247.385" rx="14.7892" ry="52.6145" class="st4"/>
		</g>
		<g id="shape2-35" v:mID="2" v:groupContext="shape" transform="translate(119.247,332.362) rotate(178.4)">
			<title>Sheet.2</title>
			<path d="M0.16 295.45 A13.2061 13.2061 -16.38 0 0 6.44 291.88 A73.55 73.55 -180 0 0 16.35 280.93 L25.73 267.89 L31.89
						 257.37 L38.25 244.95 L42.13 235.71 A69.3777 69.3777 -180 0 0 45.37 225.67 A47.785 47.785 -7.64 0 0 46.55
						 218.74 A3.11005 3.11005 52.02 0 1 51.23 217.25 A24.9363 24.9363 174.04 0 1 51.14 220.49 A76.3872 76.3872
						 0 0 1 50.12 226.79 A42.1683 42.1683 0 0 1 48.16 233.22 L46.07 238.95 A131.292 131.292 0 0 1 40.86 251.47
						 L35.94 261.14 L28.34 273.37 L20.26 284.32 A79.38 79.38 0 0 1 9.57 295.53 A22.3046 22.3046 0 0 1 3.78 299.21
						 L1.86 300 A4.06289 4.06289 0 0 1 0.16 295.45 Z" class="st5"/>
		</g>
	</g>
</svg>
